<mxfile modified="2021-05-06T04:18:14.329Z" host="app.diagrams.net" agent="5.0 (Windows NT 10.0; Win64; x64) AppleWebKit/537.36 (KHTML, like Gecko) Chrome/90.0.4430.93 Safari/537.36" etag="2Ac8t0WSzZuB0Ee6G6Xu" version="14.6.9" type="github">
  <diagram id="f106602c-feb2-e66a-4537-3a34d633f6aa" name="Page-1">
    <mxGraphModel dx="1063" dy="561" grid="1" gridSize="10" guides="1" tooltips="1" connect="1" arrows="1" fold="1" page="1" pageScale="1" pageWidth="1169" pageHeight="827" background="#ffffff" math="0" shadow="0">
      <root>
        <mxCell id="0" />
        <mxCell id="1" parent="0" />
        <mxCell id="F6ETx08V-wVwXsbqcoYq-518" value="Instance Group" style="fontStyle=0;verticalAlign=top;align=center;spacingTop=-2;fillColor=none;rounded=0;whiteSpace=wrap;html=1;strokeColor=#00882B;strokeWidth=2;dashed=1;container=1;collapsible=0;expand=0;recursiveResize=0;" vertex="1" parent="1">
          <mxGeometry x="430" y="184.25" width="540" height="425.75" as="geometry" />
        </mxCell>
        <mxCell id="F6ETx08V-wVwXsbqcoYq-519" value="" style="strokeColor=#dddddd;shadow=1;strokeWidth=1;rounded=1;absoluteArcSize=1;arcSize=2;" vertex="1" parent="F6ETx08V-wVwXsbqcoYq-518">
          <mxGeometry x="90" y="55.75" width="170" height="80" as="geometry" />
        </mxCell>
        <mxCell id="F6ETx08V-wVwXsbqcoYq-520" value="Compute&#xa;Engine" style="dashed=0;connectable=0;html=1;fillColor=#5184F3;strokeColor=none;shape=mxgraph.gcp2.hexIcon;prIcon=compute_engine;part=1;labelPosition=right;verticalLabelPosition=middle;align=left;verticalAlign=middle;spacingLeft=5;fontColor=#999999;fontSize=12;" vertex="1" parent="F6ETx08V-wVwXsbqcoYq-519">
          <mxGeometry y="0.5" width="44" height="39" relative="1" as="geometry">
            <mxPoint x="5" y="-19.5" as="offset" />
          </mxGeometry>
        </mxCell>
        <mxCell id="F6ETx08V-wVwXsbqcoYq-521" value="" style="strokeColor=#dddddd;shadow=1;strokeWidth=1;rounded=1;absoluteArcSize=1;arcSize=2;" vertex="1" parent="F6ETx08V-wVwXsbqcoYq-518">
          <mxGeometry x="100" y="255.75" width="170" height="70" as="geometry" />
        </mxCell>
        <mxCell id="F6ETx08V-wVwXsbqcoYq-522" value="Compute&#xa;Engine" style="dashed=0;connectable=0;html=1;fillColor=#5184F3;strokeColor=none;shape=mxgraph.gcp2.hexIcon;prIcon=compute_engine;part=1;labelPosition=right;verticalLabelPosition=middle;align=left;verticalAlign=middle;spacingLeft=5;fontColor=#999999;fontSize=12;" vertex="1" parent="F6ETx08V-wVwXsbqcoYq-521">
          <mxGeometry y="0.5" width="44" height="39" relative="1" as="geometry">
            <mxPoint x="5" y="-19.5" as="offset" />
          </mxGeometry>
        </mxCell>
        <mxCell id="F6ETx08V-wVwXsbqcoYq-532" value="" style="endArrow=classic;html=1;exitX=0;exitY=0.5;exitDx=0;exitDy=0;entryX=0;entryY=0.5;entryDx=0;entryDy=0;" edge="1" parent="F6ETx08V-wVwXsbqcoYq-518" source="F6ETx08V-wVwXsbqcoYq-518" target="F6ETx08V-wVwXsbqcoYq-519">
          <mxGeometry width="50" height="50" relative="1" as="geometry">
            <mxPoint x="120" y="200" as="sourcePoint" />
            <mxPoint x="170" y="150" as="targetPoint" />
          </mxGeometry>
        </mxCell>
        <mxCell id="F6ETx08V-wVwXsbqcoYq-531" value="" style="endArrow=classic;html=1;entryX=0;entryY=0.5;entryDx=0;entryDy=0;exitX=0;exitY=0.5;exitDx=0;exitDy=0;" edge="1" parent="F6ETx08V-wVwXsbqcoYq-518" source="F6ETx08V-wVwXsbqcoYq-518" target="F6ETx08V-wVwXsbqcoYq-521">
          <mxGeometry width="50" height="50" relative="1" as="geometry">
            <mxPoint x="120" y="200" as="sourcePoint" />
            <mxPoint x="170" y="150" as="targetPoint" />
          </mxGeometry>
        </mxCell>
        <mxCell id="F6ETx08V-wVwXsbqcoYq-533" value="" style="rounded=0;whiteSpace=wrap;html=1;fillColor=none;" vertex="1" parent="F6ETx08V-wVwXsbqcoYq-518">
          <mxGeometry x="200" y="95.75" width="250" height="104.25" as="geometry" />
        </mxCell>
        <mxCell id="F6ETx08V-wVwXsbqcoYq-535" value="" style="shape=image;html=1;verticalAlign=top;verticalLabelPosition=bottom;labelBackgroundColor=#ffffff;imageAspect=0;aspect=fixed;image=https://cdn4.iconfinder.com/data/icons/logos-brands-5/24/nginx-128.png;fillColor=none;" vertex="1" parent="F6ETx08V-wVwXsbqcoYq-518">
          <mxGeometry x="222" y="113.87" width="68" height="68" as="geometry" />
        </mxCell>
        <mxCell id="F6ETx08V-wVwXsbqcoYq-536" value="" style="outlineConnect=0;dashed=0;verticalLabelPosition=bottom;verticalAlign=top;align=center;html=1;shape=mxgraph.aws3.android;fillColor=#8CC64F;gradientColor=none;" vertex="1" parent="F6ETx08V-wVwXsbqcoYq-518">
          <mxGeometry x="350" y="105.87" width="73.5" height="84" as="geometry" />
        </mxCell>
        <mxCell id="F6ETx08V-wVwXsbqcoYq-526" style="edgeStyle=orthogonalEdgeStyle;rounded=0;orthogonalLoop=1;jettySize=auto;html=1;entryX=-0.01;entryY=0.426;entryDx=0;entryDy=0;entryPerimeter=0;" edge="1" parent="1" source="F6ETx08V-wVwXsbqcoYq-524" target="F6ETx08V-wVwXsbqcoYq-539">
          <mxGeometry relative="1" as="geometry">
            <Array as="points">
              <mxPoint x="40" y="331" />
              <mxPoint x="60" y="331" />
              <mxPoint x="60" y="389" />
            </Array>
          </mxGeometry>
        </mxCell>
        <mxCell id="F6ETx08V-wVwXsbqcoYq-524" value="" style="aspect=fixed;perimeter=ellipsePerimeter;html=1;align=center;shadow=0;dashed=0;spacingTop=3;image;image=img/lib/active_directory/internet_cloud.svg;" vertex="1" parent="1">
          <mxGeometry x="20" y="240" width="95.24" height="60" as="geometry" />
        </mxCell>
        <mxCell id="F6ETx08V-wVwXsbqcoYq-529" style="edgeStyle=orthogonalEdgeStyle;rounded=0;orthogonalLoop=1;jettySize=auto;html=1;exitX=0.825;exitY=0.5;exitDx=0;exitDy=0;exitPerimeter=0;entryX=0;entryY=0.5;entryDx=0;entryDy=0;endArrow=ERone;endFill=0;" edge="1" parent="1" source="F6ETx08V-wVwXsbqcoYq-525" target="F6ETx08V-wVwXsbqcoYq-518">
          <mxGeometry relative="1" as="geometry" />
        </mxCell>
        <mxCell id="F6ETx08V-wVwXsbqcoYq-525" value="Cloud Load&#xa;Balancing" style="html=1;fillColor=#5184F3;strokeColor=none;verticalAlign=top;labelPosition=center;verticalLabelPosition=bottom;align=center;spacingTop=-6;fontSize=11;fontStyle=1;fontColor=#999999;shape=mxgraph.gcp2.hexIcon;prIcon=cloud_load_balancing" vertex="1" parent="1">
          <mxGeometry x="210" y="367.88" width="66" height="58.5" as="geometry" />
        </mxCell>
        <mxCell id="F6ETx08V-wVwXsbqcoYq-534" value="" style="rounded=0;whiteSpace=wrap;html=1;fillColor=none;" vertex="1" parent="1">
          <mxGeometry x="640" y="490" width="250" height="104.25" as="geometry" />
        </mxCell>
        <mxCell id="F6ETx08V-wVwXsbqcoYq-537" value="" style="outlineConnect=0;dashed=0;verticalLabelPosition=bottom;verticalAlign=top;align=center;html=1;shape=mxgraph.aws3.android;fillColor=#8CC64F;gradientColor=none;" vertex="1" parent="1">
          <mxGeometry x="780" y="500.13" width="73.5" height="84" as="geometry" />
        </mxCell>
        <mxCell id="F6ETx08V-wVwXsbqcoYq-538" value="" style="shape=image;html=1;verticalAlign=top;verticalLabelPosition=bottom;labelBackgroundColor=#ffffff;imageAspect=0;aspect=fixed;image=https://cdn4.iconfinder.com/data/icons/logos-brands-5/24/nginx-128.png;fillColor=none;" vertex="1" parent="1">
          <mxGeometry x="652" y="508.13" width="68" height="68" as="geometry" />
        </mxCell>
        <mxCell id="F6ETx08V-wVwXsbqcoYq-540" style="edgeStyle=orthogonalEdgeStyle;rounded=0;orthogonalLoop=1;jettySize=auto;html=1;entryX=0.175;entryY=0.5;entryDx=0;entryDy=0;entryPerimeter=0;endArrow=ERone;endFill=0;" edge="1" parent="1" source="F6ETx08V-wVwXsbqcoYq-539" target="F6ETx08V-wVwXsbqcoYq-525">
          <mxGeometry relative="1" as="geometry" />
        </mxCell>
        <mxCell id="F6ETx08V-wVwXsbqcoYq-539" value="" style="aspect=fixed;html=1;points=[];align=center;image;fontSize=12;image=img/lib/azure2/networking/DNS_Zones.svg;fillColor=none;" vertex="1" parent="1">
          <mxGeometry x="80" y="365.13" width="64" height="64" as="geometry" />
        </mxCell>
      </root>
    </mxGraphModel>
  </diagram>
</mxfile>
